PathFileType	4	(X/Y/Z)	s01c0402.trc
DataRate	CameraRate	NumFrames	NumMarkers	Units	OrigDataRate	OrigDataStartFrame	OrigNumFrames
200	200	7	48	mm	200	0	2000
Frame#	Time	racr			lacr			c7			jug			rlel			rdr			llel			ldr			s2			lic			ric			lasi			rasi			rpsi			lpsi			rgt			lgt			rth1			rth2			rth3			rth4			rlfc			rsh1			rsh2			rsh3			rsh4			rlmal			rmmal			rcal			rtoe			rmt5			lth1			lth2			lth4			lth3			llfc			lsh1			lsh2			lsh3			lsh4			llmal			lmmal			lcal			ltoe			lmt5			SBIKE			LBIKE			RBIKE			
		X1	Y1	Z1	X2	Y2	Z2	X3	Y3	Z3	X4	Y4	Z4	X5	Y5	Z5	X6	Y6	Z6	X7	Y7	Z7	X8	Y8	Z8	X9	Y9	Z9	X10	Y10	Z10	X11	Y11	Z11	X12	Y12	Z12	X13	Y13	Z13	X14	Y14	Z14	X15	Y15	Z15	X16	Y16	Z16	X17	Y17	Z17	X18	Y18	Z18	X19	Y19	Z19	X20	Y20	Z20	X21	Y21	Z21	X22	Y22	Z22	X23	Y23	Z23	X24	Y24	Z24	X25	Y25	Z25	X26	Y26	Z26	X27	Y27	Z27	X28	Y28	Z28	X29	Y29	Z29	X30	Y30	Z30	X31	Y31	Z31	X32	Y32	Z32	X33	Y33	Z33	X34	Y34	Z34	X35	Y35	Z35	X36	Y36	Z36	X37	Y37	Z37	X38	Y38	Z38	X39	Y39	Z39	X40	Y40	Z40	X41	Y41	Z41	X42	Y42	Z42	X43	Y43	Z43	X44	Y44	Z44	X45	Y45	Z45	X46	Y46	Z46	X47	Y47	Z47	X48	Y48	Z48	
0	0.0000	459.376984	1359.603027	-96.339249	461.877563	1341.604980	-430.978149	419.245117	1414.632202	-257.378601	445.834259	1259.404297	-256.632690	540.694397	1095.138184	-2.286816	709.516113	895.371216	-42.454632	521.478394	1073.154297	-523.883057	706.682861	899.898254	-451.308197	-70.811470	1140.458740	-236.999146	115.516167	1164.783447	-421.594666	97.388062	1127.586792	-90.428284	88.789322	1112.254395	-397.604553	119.548882	1077.817993	-118.950798	-38.007481	1173.095459	-183.305176	-48.323364	1186.880981	-287.397278	35.572323	1006.850525	-65.664497	32.692337	1048.282959	-455.147400	108.166016	891.137512	-52.299763	159.197449	825.948792	-57.206745	209.871643	752.337158	-71.750771	203.605255	859.306946	-68.458946	247.302917	653.067444	-96.177208	176.717957	557.434387	-62.334297	138.556122	482.766235	-65.521500	88.382721	408.474762	-78.111626	176.997208	461.547150	-106.949127	15.277105	303.461578	-96.802246	64.763351	313.058105	-175.532364	-36.051403	280.655090	-153.267776	224.680771	206.778519	-136.848633	115.953865	199.490387	-69.136978	136.649078	980.006836	-460.037842	225.489777	973.777039	-465.700714	230.925446	1027.769897	-455.770142	309.380188	959.306458	-453.286865	414.586975	895.226013	-432.052185	336.446655	813.790344	-451.920319	301.925751	734.639771	-442.404449	266.703125	657.976807	-424.706116	355.329498	714.738159	-417.544617	220.032715	538.366760	-404.054504	249.645325	549.734680	-322.229492	169.509735	498.432587	-362.618469	446.723602	491.255096	-371.472565	342.648041	465.109192	-436.676910	0.000000	0.000000	-0.000000	-12.380081	84.935844	-456.108185	-21.680437	81.007591	-55.726116	
1	0.0050	459.400787	1359.610962	-96.397575	461.876923	1341.571777	-431.020447	419.203369	1414.639648	-257.412201	445.821381	1259.445557	-256.674927	540.711365	1095.145752	-2.326473	709.508118	895.387268	-42.453087	521.471619	1073.170532	-523.878601	706.659851	899.902283	-451.323181	-70.834526	1140.471558	-237.027176	115.482666	1164.834229	-421.644257	97.361908	1127.561279	-90.467003	88.767326	1112.191895	-397.591888	119.509033	1077.811279	-118.901642	-38.614182	1172.666016	-183.373566	-48.169426	1186.102173	-287.961121	35.546555	1006.837036	-65.666534	32.638523	1048.272217	-455.175201	108.106445	891.152527	-52.270561	159.129318	825.954529	-57.182625	209.780609	752.343628	-71.711426	203.549988	859.300842	-68.436844	247.222809	653.048462	-96.132759	176.699783	557.380432	-62.300312	138.607040	482.642731	-65.496338	88.482887	408.365143	-78.092026	177.073883	461.507965	-106.926086	15.444449	303.297882	-96.797890	64.811501	312.933136	-175.560043	-35.853954	280.506317	-153.276566	224.866547	206.638260	-136.832901	116.126755	199.376495	-69.132866	136.644974	980.036194	-460.074432	225.454971	973.801514	-465.736847	230.924301	1027.831787	-455.808655	309.368927	959.375305	-453.313965	414.570831	895.364624	-432.100403	336.421783	813.920898	-451.936768	301.821411	734.839172	-442.428589	266.605347	658.144714	-424.710876	355.242584	714.881836	-417.522522	219.869003	538.534790	-404.048950	249.454391	549.915588	-322.224579	169.335510	498.646912	-362.606964	446.550903	491.380890	-371.461914	342.457153	465.272125	-436.661133	-225.004791	892.933899	-252.373749	-12.369965	84.925560	-456.114288	-21.667681	81.004356	-55.724304	
2	0.0100	459.420898	1359.613159	-96.456116	461.859802	1341.567627	-431.058350	419.150055	1414.663452	-257.452545	445.805634	1259.473022	-256.715607	540.707886	1095.166626	-2.366316	709.499023	895.371948	-42.471924	521.449585	1073.181641	-523.905396	706.646667	899.909973	-451.346893	-70.861649	1140.453491	-237.092545	115.454247	1164.784302	-421.705811	97.317894	1127.574341	-90.459267	88.737488	1112.136597	-397.584930	119.476913	1077.806396	-118.890793	-38.479557	1173.047729	-183.312225	-48.192600	1186.101807	-287.984863	35.496593	1006.864868	-65.644859	32.590652	1048.251953	-455.203735	108.034981	891.167847	-52.243805	159.073914	825.963135	-57.159771	209.708328	752.349365	-71.679832	203.488068	859.308228	-68.394852	247.155045	653.057678	-96.092995	176.714050	557.337646	-62.266964	138.659698	482.573700	-65.477554	88.589127	408.260773	-78.095253	177.116272	461.447357	-106.891830	15.606596	303.174225	-96.776718	64.930893	312.843506	-175.558731	-35.693443	280.381226	-153.279831	225.044785	206.513260	-136.815140	116.293373	199.246429	-69.113693	136.611069	980.041321	-460.103699	225.420959	973.820068	-465.772339	230.879990	1027.864624	-455.828918	309.355957	959.440430	-453.355072	414.557281	895.475159	-432.137634	336.367889	814.035156	-451.964691	301.747894	734.982788	-442.447876	266.507324	658.284912	-424.727203	355.163696	714.999695	-417.547546	219.729294	538.689636	-404.049988	249.268219	550.104248	-322.219360	169.179810	498.839935	-362.624359	446.401245	491.489166	-371.459656	342.304474	465.412170	-436.636383	-224.970703	892.913757	-252.439362	-12.368946	84.935616	-456.130280	-21.677599	80.995789	-55.736717	
3	0.0150	459.404724	1359.631836	-96.503311	461.479309	1341.019409	-431.030334	419.113373	1414.676636	-257.485626	445.815796	1259.498779	-256.750336	540.599854	1095.205078	-2.331097	709.509705	895.435486	-42.486862	521.418823	1073.172852	-523.927246	706.638306	899.922180	-451.375031	-70.894814	1140.470825	-237.131104	115.441101	1164.703857	-421.740326	97.433304	1127.781616	-90.137718	88.729912	1112.066895	-397.595184	119.605095	1077.847168	-118.866440	-38.600697	1173.121460	-183.279205	-48.962917	1186.322388	-287.620819	35.803608	1006.757690	-65.361519	32.635624	1048.158081	-455.230835	107.748276	891.599182	-51.935276	159.016220	825.989807	-57.107353	209.583984	752.302979	-71.805550	203.432938	858.518188	-68.856895	247.106888	653.056824	-96.039200	176.687973	557.297546	-62.229759	138.047379	481.955231	-65.629128	88.677437	408.174286	-78.062317	177.647415	461.167572	-106.241600	16.442600	302.392303	-96.908638	65.011986	312.731384	-175.568115	-35.624470	280.432892	-153.373596	225.178986	206.403961	-136.799942	116.460617	199.097626	-69.104073	136.583130	980.030701	-460.127106	225.387238	973.836365	-465.807617	230.931656	1027.916626	-455.843170	309.118256	959.636597	-453.567596	414.568665	895.536987	-432.145142	336.347504	814.122375	-451.976898	301.600037	735.347595	-442.278687	266.420929	658.430847	-424.742096	355.501282	714.997253	-418.885437	219.580948	539.486023	-403.550140	250.344360	550.728943	-321.394928	169.047287	498.994019	-362.638550	446.255707	491.611572	-371.455597	342.455536	465.581177	-436.678345	-224.934845	892.882324	-252.484436	-12.362925	84.941216	-456.116302	-21.684454	81.014381	-55.729591	
4	0.0200	459.508270	1359.647217	-96.555626	461.531433	1340.951782	-431.104980	419.146271	1414.819824	-257.509735	445.783997	1259.509766	-256.846222	540.655029	1095.187256	-2.290012	709.830872	895.449219	-42.584938	522.176697	1073.126831	-523.128479	706.634155	899.938354	-451.406891	-70.887840	1140.397217	-237.282379	115.447685	1164.045288	-421.943665	97.436920	1127.771362	-90.138809	88.742546	1111.984253	-397.620972	119.574051	1077.786621	-118.814903	-38.476318	1173.264160	-183.300674	-49.357735	1186.447266	-287.456268	35.881470	1006.654053	-65.145004	32.647034	1048.181396	-455.349091	107.701149	891.620911	-51.888096	158.883652	825.966064	-57.109478	209.544556	752.296326	-71.745064	203.396133	858.525818	-68.814392	246.957458	653.098511	-96.057365	176.717407	557.284119	-62.244064	138.210373	481.947327	-65.491394	88.744652	408.108643	-78.038811	177.383087	461.221283	-106.833359	16.557598	302.308441	-96.871613	65.121368	312.647491	-175.554764	-35.512501	280.319733	-153.333237	225.320663	206.327454	-136.817261	116.551567	199.003510	-69.148796	136.560455	980.005554	-460.145386	225.354294	973.846558	-465.842285	230.943878	1027.897095	-455.931061	308.276245	959.810181	-453.996948	414.555664	895.541809	-432.271729	336.327911	814.155518	-452.024963	301.566162	735.404663	-442.301636	266.234070	658.577148	-424.807709	355.429565	715.063599	-418.900177	219.508072	539.469360	-403.462830	250.227676	550.844360	-321.380920	168.936646	499.110840	-362.649841	446.077332	491.602905	-371.440430	342.299683	465.667328	-436.686615	-224.914108	892.865906	-252.520950	-12.308695	84.677307	-456.208679	-21.684179	80.918831	-55.613956	
5	0.0250	459.505768	1359.720581	-96.585915	461.089294	1341.260376	-431.114532	419.083710	1414.268921	-257.636292	445.769867	1259.568237	-256.857849	540.642151	1095.218262	-2.377644	710.114990	895.546387	-42.718666	522.124817	1073.105835	-523.185364	706.633789	899.958069	-451.441833	-70.937119	1140.475708	-237.240921	115.421036	1164.008423	-422.008636	97.365234	1127.810547	-90.167908	88.773338	1111.890137	-397.660675	119.567970	1077.795898	-118.821663	-38.429562	1173.451172	-183.244843	-49.474991	1186.499146	-287.439545	35.761242	1006.848816	-65.512161	32.284046	1048.216919	-455.321472	107.646530	891.639893	-51.868778	158.919861	826.079529	-57.001434	209.517639	752.371216	-71.707626	203.359222	858.552124	-68.786835	246.683517	653.221680	-95.886131	176.733978	557.284668	-62.095676	138.241394	481.933929	-65.467026	88.820259	408.045715	-78.023972	177.392395	461.218109	-106.811195	16.662144	302.242615	-96.878876	65.252289	312.591034	-175.535233	-35.362095	280.311096	-153.353867	225.411987	206.225693	-136.818283	116.663506	198.967789	-69.055649	136.542343	979.967163	-460.159332	225.322144	973.849976	-465.876282	230.910965	1028.131348	-455.929718	308.002106	959.875854	-454.159149	414.496765	895.638062	-432.233856	336.351501	814.227295	-452.055603	301.494232	735.480408	-442.305542	266.224335	658.636536	-424.732727	355.678650	715.215271	-418.736389	219.424255	539.571716	-403.452271	250.078018	550.905029	-321.391357	168.846619	499.192017	-362.658478	446.041779	491.742584	-371.399384	342.312988	465.881714	-436.542847	-224.894608	892.850281	-252.557220	-12.853030	85.074066	-455.924042	-21.623098	80.901772	-55.757797	
6	0.0300	459.535248	1359.697876	-96.604912	461.136414	1341.235229	-431.161224	419.004852	1414.287109	-257.653625	445.763214	1259.600464	-256.880310	540.626343	1095.213501	-2.403428	709.907349	895.550842	-42.568981	522.088745	1073.082397	-523.254150	706.636475	899.980652	-451.479126	-70.983818	1140.475342	-237.298187	115.354088	1164.061279	-422.035004	97.325439	1127.809814	-90.200317	88.820236	1111.786011	-397.712585	119.540741	1077.823730	-118.800858	-38.587299	1173.477173	-183.102249	-49.412621	1186.500610	-287.519073	35.724480	1006.896545	-65.553543	32.265686	1048.181030	-455.297546	107.615662	891.690735	-51.847862	158.888382	826.120911	-56.963585	209.517227	752.421814	-71.659836	203.317841	858.582886	-68.754822	246.874069	653.203979	-95.829002	176.747009	557.283875	-62.052898	138.274139	481.905762	-65.442757	88.881149	408.007233	-78.013573	177.434921	461.221588	-106.763443	16.760490	302.204559	-96.851852	65.364838	312.538116	-175.512680	-35.253391	280.302582	-153.361450	225.470459	206.161362	-136.804016	116.773056	198.883759	-69.057594	136.528107	979.916748	-460.169647	225.290955	973.844971	-465.909424	230.853668	1028.095459	-455.957642	308.057434	959.871338	-454.161041	414.485046	895.642395	-432.250458	336.332458	814.260254	-452.063110	301.509949	735.490845	-442.352905	266.179810	658.685791	-424.728424	355.594818	715.262085	-418.787842	218.991104	539.940796	-404.118378	249.955765	550.918884	-321.378143	168.775894	499.239227	-362.664795	445.950958	491.816864	-371.405823	342.229370	465.938354	-436.565002	-224.894028	892.846863	-252.556641	-12.767336	85.083717	-455.911285	-21.635761	80.946274	-55.783718	
